<?xml version="1.0" encoding="utf-8"?>
<!-- Generator: Adobe Illustrator 16.0.0, SVG Export Plug-In . SVG Version: 6.00 Build 0)  -->
<!DOCTYPE svg PUBLIC "-//W3C//DTD SVG 1.1//EN" "http://www.w3.org/Graphics/SVG/1.1/DTD/svg11.dtd">
<svg version="1.1" id="Capa_1" xmlns="http://www.w3.org/2000/svg" xmlns:xlink="http://www.w3.org/1999/xlink" x="0px" y="0px"
	 width="1132.812px" height="807px" viewBox="-672.772 -541 1132.812 807" enable-background="new -672.772 -541 1132.812 807"
	 xml:space="preserve">
<path display="none" fill="#F8981D" stroke="#1386A5" stroke-width="12" stroke-miterlimit="10" d="M12.441-430.435h-261.199
	c-21.756,0-39.566,17.793-39.566,39.568v506.708c0,21.774,17.81,39.593,39.566,39.593H12.441c21.757,0,39.576-17.786,39.576-39.561
	v-506.74C52.018-412.641,34.198-430.435,12.441-430.435z M-159.937-401.91h83.564c2.65,0,4.792,2.142,4.792,4.807
	c0,2.64-2.142,4.781-4.792,4.781h-83.564c-2.638,0-4.789-2.142-4.789-4.781C-164.726-399.769-162.575-401.91-159.937-401.91z
	 M-118.155,135.655c-10.927,0-19.788-8.86-19.788-19.782c0-10.951,8.86-19.794,19.788-19.794c10.921,0,19.779,8.843,19.779,19.794
	C-98.376,126.795-107.233,135.655-118.155,135.655z M24.487,82.201h-285.275v-449.879H24.487V82.201z"/>
<path display="none" fill="#F8981D" stroke="#515151" stroke-width="12" stroke-miterlimit="10" d="M212.039-338.166V88.14h-636.811
	v-426.306L-106.367-74.92L212.039-338.166z M181.799-363.139h-576.351l288.186,238.272L181.799-363.139z"/>
<g display="none">
	<path display="inline" fill="#F8981D" stroke="#515151" stroke-width="12" stroke-miterlimit="10" d="M-1.168-77.753
		c-8.923,14.407-18.674,29.4-29.229,45C58.411-19.466,103.875,8.982,103.875,23.134c0,18.845-80.568,63.017-236.812,63.017
		c-156.231,0-236.8-44.185-236.8-63.017c0-14.151,45.459-42.6,134.292-55.886c-10.574-15.601-20.307-30.594-29.248-45
		C-352.337-61.225-419.248-27.23-419.248,23.134c0,73.889,144.049,112.54,286.312,112.54c142.287,0,286.323-38.651,286.323-112.54
		C153.399-27.23,86.494-61.225-1.168-77.753z"/>
	<g display="inline">
		<path fill="#F8981D" stroke="#515151" stroke-width="12" stroke-miterlimit="10" d="M-132.285-425.277
			c-92.837,0-168.091,75.254-168.091,168.066c0,66.588,86.462,193.987,135.364,260.709c7.648,10.433,19.794,16.602,32.727,16.602
			c12.908,0,25.085-6.168,32.703-16.589C-50.679-63.211,35.789-190.623,35.789-257.211
			C35.789-350.023-39.466-425.277-132.285-425.277z M-132.285-152.855c-54.856,0-99.479-44.623-99.479-99.449
			c0-54.844,44.623-99.468,99.479-99.468c54.838,0,99.45,44.624,99.45,99.468C-32.835-197.479-77.446-152.855-132.285-152.855z"/>
		<path fill="#F8981D" stroke="#515151" stroke-width="12" stroke-miterlimit="10" d="M-132.285-312.804
			c-33.367,0-60.5,27.133-60.5,60.5c0,33.336,27.133,60.481,60.5,60.481c33.35,0,60.494-27.133,60.494-60.481
			C-71.791-285.684-98.935-312.804-132.285-312.804z"/>
	</g>
</g>
<g>
	<path fill="#F8981D" stroke="#1386A5" stroke-width="12" stroke-miterlimit="10" d="M148.002-335.877h-508.735
		c-10.22,0-18.506,8.286-18.506,18.506V42.371c0,10.219,8.287,18.506,18.506,18.506h508.735c10.219,0,18.506-8.287,18.506-18.506
		v-359.742C166.508-327.592,158.221-335.877,148.002-335.877z M129.496,23.863h-471.723v-322.729h471.723V23.863z"/>
	<path fill="#F8981D" stroke="#1386A5" stroke-width="12" stroke-miterlimit="10" d="M-293.733-211.691l177.659,109.464
		c2.976,1.833,6.341,2.75,9.708,2.75c3.366,0,6.731-0.917,9.707-2.75l177.66-109.464c8.703-5.361,11.41-16.763,6.049-25.463
		c-5.36-8.701-16.766-11.41-25.463-6.048l-167.953,103.481l-167.952-103.481c-8.698-5.358-20.1-2.654-25.463,6.048
		C-305.144-228.454-302.436-217.052-293.733-211.691z"/>
</g>
</svg>
