<?xml version="1.0" encoding="utf-8"?>
<!-- Generator: Adobe Illustrator 16.0.0, SVG Export Plug-In . SVG Version: 6.00 Build 0)  -->
<!DOCTYPE svg PUBLIC "-//W3C//DTD SVG 1.1//EN" "http://www.w3.org/Graphics/SVG/1.1/DTD/svg11.dtd">
<svg version="1.1" id="Capa_1" xmlns="http://www.w3.org/2000/svg" xmlns:xlink="http://www.w3.org/1999/xlink" x="0px" y="0px"
	 width="1132.812px" height="807px" viewBox="-672.772 -541 1132.812 807" enable-background="new -672.772 -541 1132.812 807"
	 xml:space="preserve">
<path display="none" fill="#F8981D" stroke="#1386A5" stroke-width="12" stroke-miterlimit="10" d="M12.441-430.435h-261.199
	c-21.756,0-39.566,17.793-39.566,39.568v506.708c0,21.774,17.81,39.593,39.566,39.593H12.441c21.757,0,39.576-17.786,39.576-39.561
	v-506.74C52.018-412.641,34.198-430.435,12.441-430.435z M-159.937-401.91h83.564c2.65,0,4.792,2.142,4.792,4.807
	c0,2.64-2.142,4.781-4.792,4.781h-83.564c-2.638,0-4.789-2.142-4.789-4.781C-164.726-399.769-162.575-401.91-159.937-401.91z
	 M-118.155,135.655c-10.927,0-19.788-8.86-19.788-19.782c0-10.951,8.86-19.794,19.788-19.794c10.921,0,19.779,8.843,19.779,19.794
	C-98.376,126.795-107.233,135.655-118.155,135.655z M24.487,82.201h-285.275v-449.879H24.487V82.201z"/>
<path display="none" fill="#F8981D" stroke="#515151" stroke-width="12" stroke-miterlimit="10" d="M212.039-338.166V88.14h-636.811
	v-426.306L-106.367-74.92L212.039-338.166z M181.799-363.139h-576.351l288.186,238.272L181.799-363.139z"/>
<g>
	<path fill="#F8981D" stroke="#1386A5" stroke-width="12" stroke-miterlimit="10" d="M25.396-70.451
		c-8.922,14.407-18.673,29.4-29.229,45c88.809,13.287,134.272,41.735,134.272,55.886c0,18.845-80.568,63.017-236.811,63.017
		c-156.231,0-236.8-44.185-236.8-63.017c0-14.151,45.459-42.6,134.292-55.886c-10.574-15.601-20.307-30.594-29.248-45
		c-87.645,16.528-154.556,50.523-154.556,100.887c0,73.889,144.049,112.54,286.312,112.54c142.288,0,286.323-38.651,286.323-112.54
		C179.965-19.928,113.059-53.923,25.396-70.451z"/>
	<g>
		<path fill="#F8981D" stroke="#1386A5" stroke-width="12" stroke-miterlimit="10" d="M-105.72-417.976
			c-92.837,0-168.091,75.254-168.091,168.066c0,66.588,86.462,193.987,135.364,260.709c7.648,10.433,19.794,16.602,32.727,16.602
			c12.908,0,25.085-6.169,32.703-16.589c48.902-66.722,135.37-194.133,135.37-260.721C62.354-342.722-12.901-417.976-105.72-417.976
			z M-105.72-145.554c-54.856,0-99.479-44.623-99.479-99.449c0-54.844,44.623-99.468,99.479-99.468
			c54.838,0,99.45,44.624,99.45,99.468C-6.27-190.177-50.881-145.554-105.72-145.554z"/>
		<path fill="#F8981D" stroke="#1386A5" stroke-width="12" stroke-miterlimit="10" d="M-105.72-305.502
			c-33.367,0-60.5,27.133-60.5,60.5c0,33.336,27.133,60.481,60.5,60.481c33.35,0,60.494-27.133,60.494-60.481
			C-45.226-278.382-72.37-305.502-105.72-305.502z"/>
	</g>
</g>
<g display="none">
	<path display="inline" fill="#F8981D" stroke="#1386A5" stroke-width="12" stroke-miterlimit="10" d="M148.002-335.877h-508.735
		c-10.22,0-18.506,8.286-18.506,18.506V42.371c0,10.219,8.287,18.506,18.506,18.506h508.735c10.219,0,18.506-8.287,18.506-18.506
		v-359.742C166.508-327.592,158.221-335.877,148.002-335.877z M129.496,23.863h-471.723v-322.729h471.723V23.863z"/>
	<path display="inline" fill="#F8981D" stroke="#1386A5" stroke-width="12" stroke-miterlimit="10" d="M-293.733-211.691
		l177.659,109.464c2.976,1.833,6.341,2.75,9.708,2.75c3.366,0,6.731-0.917,9.707-2.75l177.66-109.464
		c8.703-5.361,11.41-16.763,6.049-25.463c-5.36-8.701-16.766-11.41-25.463-6.048l-167.953,103.481l-167.952-103.481
		c-8.698-5.358-20.1-2.654-25.463,6.048C-305.144-228.454-302.436-217.052-293.733-211.691z"/>
</g>
</svg>
